<svg width="24" height="25" viewBox="0 0 24 25" fill="none" xmlns="http://www.w3.org/2000/svg">
<g clip-path="url(#clip0_783_4322)">
<path d="M17 0.5H7C5.67441 0.501588 4.40356 1.02888 3.46622 1.96622C2.52888 2.90356 2.00159 4.17441 2 5.5V20.5C2 21.5609 2.42143 22.5783 3.17157 23.3284C3.92172 24.0786 4.93913 24.5 6 24.5H17C18.3256 24.4984 19.5964 23.9711 20.5338 23.0338C21.4711 22.0964 21.9984 20.8256 22 19.5V5.5C21.9984 4.17441 21.4711 2.90356 20.5338 1.96622C19.5964 1.02888 18.3256 0.501588 17 0.5V0.5ZM20 5.5V16.5H8V2.5H17C17.7956 2.5 18.5587 2.81607 19.1213 3.37868C19.6839 3.94129 20 4.70435 20 5.5ZM6 2.672V16.5C5.29763 16.4994 4.6076 16.6847 4 17.037V5.5C4.00009 4.87969 4.19246 4.27466 4.55063 3.7682C4.90881 3.26175 5.41517 2.87877 6 2.672ZM17 22.5H6C5.46957 22.5 4.96086 22.2893 4.58579 21.9142C4.21071 21.5391 4 21.0304 4 20.5C4 19.9696 4.21071 19.4609 4.58579 19.0858C4.96086 18.7107 5.46957 18.5 6 18.5H20V19.5C20 20.2956 19.6839 21.0587 19.1213 21.6213C18.5587 22.1839 17.7956 22.5 17 22.5Z" fill="white"/>
</g>
<defs>
<clipPath id="clip0_783_4322">
<rect width="24" height="24" fill="white" transform="translate(0 0.5)"/>
</clipPath>
</defs>
</svg>
