<svg width="25" height="22" viewBox="0 0 25 22" fill="none" xmlns="http://www.w3.org/2000/svg">
<path d="M11.0428 11.6507C10.9452 11.5655 10.8677 11.4641 10.8148 11.3524C10.7619 11.2407 10.7347 11.1209 10.7347 10.9999C10.7347 10.8788 10.7619 10.759 10.8148 10.6473C10.8677 10.5356 10.9452 10.4342 11.0428 10.349L15.8241 6.15069C15.9217 6.06547 15.9992 5.96408 16.0521 5.85238C16.105 5.74068 16.1322 5.62086 16.1322 5.49985C16.1322 5.37884 16.105 5.25903 16.0521 5.14732C15.9992 5.03562 15.9217 4.93423 15.8241 4.84902C15.6289 4.67829 15.3649 4.58246 15.0897 4.58246C14.8145 4.58246 14.5505 4.67829 14.3553 4.84902L9.57407 9.05652C8.98886 9.57214 8.66016 10.2711 8.66016 10.9999C8.66016 11.7286 8.98886 12.4276 9.57407 12.9432L14.3553 17.1507C14.5493 17.32 14.8112 17.4155 15.0845 17.4165C15.2216 17.4172 15.3575 17.3941 15.4844 17.3485C15.6113 17.3029 15.7267 17.2356 15.8241 17.1507C15.9217 17.0655 15.9992 16.9641 16.0521 16.8524C16.105 16.7407 16.1322 16.6209 16.1322 16.4999C16.1322 16.3788 16.105 16.259 16.0521 16.1473C15.9992 16.0356 15.9217 15.9342 15.8241 15.849L11.0428 11.6507Z" fill="white"/>
</svg>
