<svg width="191" height="33" viewBox="0 0 191 33" fill="none" xmlns="http://www.w3.org/2000/svg">
<path d="M15.5489 2.92705C15.8483 2.00574 17.1517 2.00574 17.4511 2.92705L19.98 10.7102C20.1138 11.1223 20.4978 11.4012 20.931 11.4012H29.1147C30.0835 11.4012 30.4862 12.6408 29.7025 13.2102L23.0818 18.0205C22.7313 18.2752 22.5846 18.7265 22.7185 19.1385L25.2474 26.9217C25.5468 27.843 24.4923 28.6092 23.7086 28.0398L17.0878 23.2295C16.7373 22.9748 16.2627 22.9748 15.9122 23.2295L9.29144 28.0398C8.50773 28.6092 7.45325 27.843 7.7526 26.9217L10.2815 19.1385C10.4154 18.7265 10.2687 18.2752 9.91824 18.0205L3.29747 13.2102C2.51375 12.6408 2.91653 11.4012 3.88525 11.4012H12.069C12.5022 11.4012 12.8862 11.1223 13.02 10.7102L15.5489 2.92705Z" fill="#EF7828"/>
<path d="M54.0462 3.02716C54.3401 2.09451 55.6599 2.09451 55.9538 3.02716L58.3718 10.7017C58.503 11.1181 58.8891 11.4012 59.3256 11.4012H67.2145C68.1758 11.4012 68.5834 12.6251 67.8141 13.2015L61.3795 18.0226C61.0397 18.2772 60.8977 18.7185 61.0253 19.1234L63.4705 26.8843C63.7625 27.811 62.6947 28.5677 61.9171 27.9851L55.5996 23.2517C55.2442 22.9854 54.7558 22.9854 54.4004 23.2517L48.0829 27.9851C47.3053 28.5677 46.2375 27.811 46.5295 26.8843L48.9747 19.1234C49.1023 18.7185 48.9603 18.2772 48.6205 18.0226L42.1859 13.2015C41.4166 12.6251 41.8243 11.4012 42.7855 11.4012H50.6744C51.1109 11.4012 51.497 11.1181 51.6282 10.7017L54.0462 3.02716Z" fill="#EF7828"/>
<path d="M94.5489 2.92705C94.8483 2.00574 96.1517 2.00574 96.4511 2.92705L98.98 10.7102C99.1138 11.1223 99.4978 11.4012 99.931 11.4012H108.115C109.083 11.4012 109.486 12.6408 108.703 13.2102L102.082 18.0205C101.731 18.2752 101.585 18.7265 101.718 19.1385L104.247 26.9217C104.547 27.843 103.492 28.6092 102.709 28.0398L96.0878 23.2295C95.7373 22.9748 95.2627 22.9748 94.9122 23.2295L88.2914 28.0398C87.5077 28.6092 86.4532 27.843 86.7526 26.9217L89.2815 19.1385C89.4154 18.7265 89.2687 18.2752 88.9182 18.0205L82.2975 13.2102C81.5138 12.6408 81.9165 11.4012 82.8853 11.4012H91.069C91.5022 11.4012 91.8862 11.1223 92.02 10.7102L94.5489 2.92705Z" fill="#EF7828"/>
<path d="M133.549 2.92705C133.848 2.00574 135.152 2.00574 135.451 2.92705L137.98 10.7102C138.114 11.1223 138.498 11.4012 138.931 11.4012H147.115C148.083 11.4012 148.486 12.6408 147.703 13.2102L141.082 18.0205C140.731 18.2752 140.585 18.7265 140.718 19.1385L143.247 26.9217C143.547 27.843 142.492 28.6092 141.709 28.0398L135.088 23.2295C134.737 22.9748 134.263 22.9748 133.912 23.2295L127.291 28.0398C126.508 28.6092 125.453 27.843 125.753 26.9217L128.282 19.1385C128.415 18.7265 128.269 18.2752 127.918 18.0205L121.297 13.2102C120.514 12.6408 120.917 11.4012 121.885 11.4012H130.069C130.502 11.4012 130.886 11.1223 131.02 10.7102L133.549 2.92705Z" fill="#EF7828"/>
<path d="M173.549 2.92705C173.848 2.00574 175.152 2.00574 175.451 2.92705L177.98 10.7102C178.114 11.1223 178.498 11.4012 178.931 11.4012H187.115C188.083 11.4012 188.486 12.6408 187.703 13.2102L181.082 18.0205C180.731 18.2752 180.585 18.7265 180.718 19.1385L183.247 26.9217C183.547 27.843 182.492 28.6092 181.709 28.0398L175.088 23.2295C174.737 22.9748 174.263 22.9748 173.912 23.2295L167.291 28.0398C166.508 28.6092 165.453 27.843 165.753 26.9217L168.282 19.1385C168.415 18.7265 168.269 18.2752 167.918 18.0205L161.297 13.2102C160.514 12.6408 160.917 11.4012 161.885 11.4012H170.069C170.502 11.4012 170.886 11.1223 171.02 10.7102L173.549 2.92705Z" fill="#EF7828"/>
</svg>
